<?xml version="1.0" encoding="UTF-8"?>
<svg width="490px" height="136px" viewBox="0 0 490 136" version="1.1" xmlns="http://www.w3.org/2000/svg" xmlns:xlink="http://www.w3.org/1999/xlink">
    <title>Group 7 Copy</title>
    <g id="logo" stroke="none" stroke-width="1" fill="none" fill-rule="evenodd">
        <g id="Group-7-Copy">
            <path d="M298.622213,8.122422 L294.389381,99.1283088 C294.184102,103.541815 297.595544,107.286081 302.00905,107.491361 C302.132864,107.497119 302.256794,107.5 302.380742,107.5 L318,107.5 C319.104569,107.5 320,108.395431 320,109.5 L320,125.040129 C320,127.249268 321.790861,129.040129 324,129.040129 C325.179908,129.040129 326.299624,128.519197 327.059645,127.616672 L343.425911,108.181731 C343.791317,107.747811 344.323803,107.489479 344.890785,107.471058 L475.372573,103.231577 C479.434438,103.099603 482.751935,99.9431851 483.085749,95.892909 L489.329956,20.1298697 C489.692869,15.7265217 486.41745,11.8627034 482.014101,11.4997901 C481.962311,11.4955217 481.910481,11.491758 481.858618,11.4884995 L307.115202,0.509855646 C302.705619,0.232813739 298.906358,3.58290077 298.629316,7.99248445 C298.626596,8.03577699 298.624228,8.07909094 298.622213,8.122422 Z" id="Path-2-Copy-2" fill="#43C7ED"></path>
            <g id="Group-2" transform="translate(0.000000, 30.000000)" fill="#43C7ED" fill-rule="nonzero">
                <path d="M7.79,31.6794878 L7.79,52.6794878 L1.77635684e-15,52.6794878 L1.77635684e-15,1.00948784 L8.83,1.00948784 C12.1213142,0.90311377 15.413114,1.20542192 18.63,1.90948784 C20.8520057,2.50219807 22.8795455,3.66768864 24.51,5.28948784 C27.4877705,8.16104403 29.1177795,12.1543844 29,16.2894878 C29,21.0161545 27.4166667,24.7628212 24.25,27.5294878 C21.0833333,30.2961545 16.8,31.6794878 11.4,31.6794878 L7.79,31.6794878 Z M7.79,24.4594878 L10.7,24.4594878 C17.86,24.4594878 21.44,21.7061545 21.44,16.1994878 C21.44,10.8661545 17.75,8.19948784 10.37,8.19948784 L7.79,8.19948784 L7.79,24.4594878 Z" id="Shape"></path>
                <path d="M54.48,30.6394878 L70.48,52.6394878 L60.93,52.6394878 L46.18,31.5094878 L44.78,31.5094878 L44.78,52.6494878 L37,52.6494878 L37,1.00948784 L46.13,1.00948784 C52.95,1.00948784 57.8766667,2.29282117 60.91,4.85948784 C64.2226113,7.65914939 66.0659388,11.8250696 65.91,16.1594878 C65.992472,19.5724291 64.882036,22.9072735 62.77,25.5894878 C60.6973476,28.2076021 57.7571579,29.9986706 54.48,30.6394878 L54.48,30.6394878 Z M44.78,24.7194878 L47.25,24.7194878 C54.63,24.7194878 58.32,21.8994878 58.32,16.2594878 C58.32,10.9461545 54.7333333,8.28948784 47.56,8.28948784 L44.78,8.28948784 L44.78,24.7194878 Z" id="Shape"></path>
                <path d="M74.48,26.5894878 C74.4037016,19.5008552 77.3060896,12.7056394 82.48,7.85948784 C87.5214294,2.74897976 94.4321591,-0.0796147803 101.61,0.0294878398 C108.738674,-0.06674093 115.589884,2.78883482 120.54,7.91948784 C125.705302,12.8780503 128.577674,19.760152 128.47,26.9194878 C128.581833,34.0645681 125.677528,40.9259886 120.47,45.8194878 C110.212636,55.8658642 93.9250846,56.2461693 83.21,46.6894878 C77.39,41.5628212 74.48,34.8628212 74.48,26.5894878 Z M82.34,26.6894878 C82.1702697,31.9864037 84.2608636,37.1056319 88.09,40.7694878 C95.5546604,48.1675865 107.600508,48.1228397 115.01,40.6694878 C118.685826,37.0094537 120.705405,32.005665 120.6,26.8194878 C120.73327,21.6418805 118.738147,16.6360033 115.08,12.9694878 C107.563997,5.47976974 95.4060031,5.47976974 87.89,12.9694878 C84.2248621,16.5802585 82.2161291,21.5459913 82.34,26.6894878 L82.34,26.6894878 Z" id="Shape"></path>
                <path d="M154,1.00948784 L154,34.4194878 C154.101834,37.4197923 153.819544,40.4208024 153.16,43.3494878 C152.676904,45.4321567 151.703208,47.3692645 150.32,48.9994878 C147.746083,52.0322829 143.925326,53.7197533 139.95,53.5794878 C136.730769,53.590199 133.571177,52.7111887 130.82,51.0394878 L134.63,44.3794878 C136.168519,45.5269979 138.013161,46.1917651 139.93,46.2894878 C141.92422,46.4724424 143.830343,45.4284246 144.75,43.6494878 C145.683333,41.8894878 146.15,38.8128212 146.15,34.4194878 L146.15,1.00948784 L154,1.00948784 Z" id="Path"></path>
                <polygon id="Path" points="194.84 8.28948784 174.14 8.28948784 174.14 20.7394878 194.24 20.7394878 194.24 28.0594878 174.14 28.0594878 174.14 45.2894878 194.84 45.2894878 194.84 52.6094878 166.35 52.6094878 166.35 1.00948784 194.84 1.00948784"></polygon>
                <path d="M243.23,3.77948784 L243.23,13.0094878 C238.723333,9.24282117 234.056667,7.35948784 229.23,7.35948784 C224.148367,7.26419989 219.268372,9.34574912 215.82,13.0794878 C212.196776,16.7903596 210.221406,21.804485 210.34,26.9894878 C210.222953,32.1151495 212.20213,37.0667033 215.82,40.6994878 C219.328154,44.3682541 224.215004,46.3962784 229.29,46.2894878 C231.69309,46.3581091 234.082149,45.900775 236.29,44.9494878 C237.454325,44.451959 238.569241,43.8459536 239.62,43.1394878 C240.88171,42.2967566 242.093726,41.3819018 243.25,40.3994878 L243.25,49.7994878 C238.993704,52.2609308 234.16676,53.5642057 229.25,53.5794878 C222.157693,53.6974597 215.326909,50.903705 210.35,45.8494878 C205.270688,40.930157 202.451325,34.1296656 202.56,27.0594878 C202.494621,20.6078325 204.784336,14.3537801 209,9.46948784 C214.095354,3.28361936 221.758706,-0.206766355 229.77,0.00948783981 C234.514107,0.0324973062 239.164145,1.33492244 243.23,3.77948784 Z" id="Path"></path>
                <polygon id="Path" points="267.31 8.28948784 267.31 52.6494878 259.52 52.6494878 259.52 8.28948784 247.65 8.28948784 247.65 1.00948784 279.15 1.00948784 279.15 8.28948784"></polygon>
            </g>
            <g id="Group" transform="translate(317.000000, 32.000000)" fill="#FFFFFF" fill-rule="nonzero">
                <path d="M17.52,29.63 L33.52,51.63 L23.99,51.63 L9.23,30.5 L7.79,30.5 L7.79,51.64 L0,51.64 L0,-7.10542736e-15 L9.13,-7.10542736e-15 C15.95,-7.10542736e-15 20.8766667,1.28333333 23.91,3.85 C27.2226113,6.64966155 29.0659388,10.8155818 28.91,15.15 C28.9981536,18.5604985 27.8948758,21.895085 25.79,24.58 C23.7223412,27.1940817 20.7899059,28.9847466 17.52,29.63 L17.52,29.63 Z M7.79,23.71 L10.26,23.71 C17.64,23.71 21.33,20.89 21.33,15.25 C21.33,9.96333333 17.74,7.32 10.56,7.32 L7.79,7.32 L7.79,23.71 Z" id="Shape"></path>
                <polygon id="Path" points="69.79 7.28 49.09 7.28 49.09 19.73 69.19 19.73 69.19 27.05 49.09 27.05 49.09 44.28 69.79 44.28 69.79 51.6 41.27 51.6 41.27 1.77635684e-14 69.79 1.77635684e-14"></polygon>
                <polygon id="Path" points="149.72 7.28 129.02 7.28 129.02 19.73 149.12 19.73 149.12 27.05 129.02 27.05 129.02 44.28 149.72 44.28 149.72 51.6 121.23 51.6 121.23 1.77635684e-14 149.72 1.77635684e-14"></polygon>
                <path d="M97.49,29.63 L113.49,51.63 L103.96,51.63 L89.19,30.5 L87.79,30.5 L87.79,51.64 L80,51.64 L80,0 L89.13,0 C95.95,0 100.876667,1.28333333 103.91,3.85 C107.222611,6.64966155 109.065939,10.8155818 108.91,15.15 C108.998154,18.5604985 107.894876,21.895085 105.79,24.58 C103.714852,27.2001344 100.770783,28.9914052 97.49,29.63 L97.49,29.63 Z M87.79,23.71 L90.26,23.71 C97.64,23.71 101.33,20.89 101.33,15.25 C101.33,9.96333333 97.74,7.32 90.56,7.32 L87.79,7.32 L87.79,23.71 Z" id="Shape"></path>
            </g>
        </g>
    </g>
</svg>